<svg id="Layer_1" data-name="Layer 1" xmlns="http://www.w3.org/2000/svg" viewBox="0 0 214.8 268.93"><defs><style>.cls-1{fill:#cbceaa;}.cls-2{fill:#dfe0ca;}.cls-3{fill:#bab189;}.cls-4{fill:#231f1f;}.cls-5{fill:#914333;}.cls-6{fill:#7a4031;}.cls-7{fill:#964b3c;}.cls-8{fill:#6f945e;}.cls-9{fill:#97af8b;}.cls-10{fill:#92af90;}.cls-11{fill:#b8d1b6;}.cls-12{fill:#bd7d77;}.cls-13{fill:#7fa767;}.cls-14{fill:#6b8e54;}.cls-15{fill:#548c57;}.cls-16{fill:#b0b755;}.cls-17{fill:#9aa741;}</style></defs><path class="cls-1" d="M894.41,924.31a2.45,2.45,0,0,0,0-.27c0-7.35-23.79-15.07-88.48-13.3-45.29,1.24-82.66,5.12-87.85,11.72a2.11,2.11,0,0,0-.9,2c.35,3.15-.23,9.25,2.85,11.23,1.51,1,3.52.61,5.2.54l3.56-.12q30.24.83,60.5,1c5.39.15,11,.24,16.64.24a477.72,477.72,0,0,0,55.18-2.91c7.62,0,15.28-1,22.85-1.6,3-.26,7.39.1,9.76-2.27C895.63,928.67,895.41,926.37,894.41,924.31Z" transform="translate(-695.52 -699.97)"/><path class="cls-2" d="M794.34,922.37a2.64,2.64,0,0,0-3.35-1,13.21,13.21,0,0,0-8,.82c-2,1-1.51,4.34.63,4.81a15.3,15.3,0,0,0,7.73-.25h0a2.69,2.69,0,0,0,3.07-1.71A2.92,2.92,0,0,0,794.34,922.37Z" transform="translate(-695.52 -699.97)"/><path class="cls-2" d="M809.21,927.57a2.71,2.71,0,0,0-2.35-1.62,2.58,2.58,0,0,0-.8-.14,2.53,2.53,0,0,0-.79.14,2.64,2.64,0,0,0-2.54,1.29,2.69,2.69,0,0,0,.94,3.6,4.28,4.28,0,0,0,4.46,0A2.65,2.65,0,0,0,809.21,927.57Z" transform="translate(-695.52 -699.97)"/><path class="cls-2" d="M825,926.15a2.76,2.76,0,0,0-1.92-1.86,2,2,0,0,0-1.15-.26,4.57,4.57,0,0,0-3.73,2.2,2.64,2.64,0,0,0,0,2.66,2.59,2.59,0,0,0,2.28,1.3,6.72,6.72,0,0,0,3.31-1.07A2.7,2.7,0,0,0,825,926.15Z" transform="translate(-695.52 -699.97)"/><path class="cls-2" d="M845.91,920.13c-1-1.75-3.24-2.09-5-2.28a14,14,0,0,0-6.54,1,2.72,2.72,0,0,0-1.84,3.24,2.87,2.87,0,0,0,2.32,2,2.34,2.34,0,0,0,2.18,1.19c2.12,0,4.63.31,6.69-.25A3.36,3.36,0,0,0,845.91,920.13Z" transform="translate(-695.52 -699.97)"/><path class="cls-2" d="M767.21,925.89a12.13,12.13,0,0,0-10.36,1.47c-1.73,1.16-1.74,4.33.63,4.81a13.58,13.58,0,0,0,8.86-1.09C769.19,931.41,770.25,926.84,767.21,925.89Z" transform="translate(-695.52 -699.97)"/><path class="cls-2" d="M779.77,927.78a2.62,2.62,0,0,0-1.21-1.57l-.63-.27a2.77,2.77,0,0,0-1.4,0l-1.17.17a2.62,2.62,0,0,0-1.57,1.21,2.64,2.64,0,0,0,.94,3.61l.63.26a2.56,2.56,0,0,0,1.4,0l1.17-.17a2.62,2.62,0,0,0,1.84-3.24Z" transform="translate(-695.52 -699.97)"/><path class="cls-2" d="M749.66,929.24l-.41-.54a2.66,2.66,0,0,0-1.16-.67,3,3,0,0,0-.94-.17,3.21,3.21,0,0,0-1,.11,3.52,3.52,0,0,0-1.62.93,2.63,2.63,0,0,0,0,3.72,2.65,2.65,0,0,0,1.86.77,16.79,16.79,0,0,0,2.31-.55,2.74,2.74,0,0,0,1.21-1.58A2.64,2.64,0,0,0,749.66,929.24Z" transform="translate(-695.52 -699.97)"/><path class="cls-2" d="M865,924.23a5.19,5.19,0,0,0-4.65-1.27,2.64,2.64,0,0,0-1.57,1.21,2.72,2.72,0,0,0-.35,1.31,2.6,2.6,0,0,0-.11,1.69,2.71,2.71,0,0,0,3.24,1.84l2.28-.38A2.65,2.65,0,0,0,865,924.23Z" transform="translate(-695.52 -699.97)"/><path class="cls-2" d="M830.21,929.87l-3.84.21a2.64,2.64,0,0,0,0,5.27l1.76-.1a2.66,2.66,0,0,0,.57,0l1.51-.15a2.69,2.69,0,0,0,2.63-2.63A2.66,2.66,0,0,0,830.21,929.87Z" transform="translate(-695.52 -699.97)"/><path class="cls-3" d="M802.62,931.94a2.6,2.6,0,0,0-.79-1.25,2.15,2.15,0,0,0-1.48-1.08,10.63,10.63,0,0,0-5.45.45,2.66,2.66,0,0,0,0,5.08,9.07,9.07,0,0,0,5.89,0A2.69,2.69,0,0,0,802.62,931.94Z" transform="translate(-695.52 -699.97)"/><path class="cls-3" d="M840.22,927.89a9.51,9.51,0,0,0-8.87.33A2.66,2.66,0,0,0,832,933a10.92,10.92,0,0,0,8.19-.53,2.08,2.08,0,0,0,1.1-1.24A2.64,2.64,0,0,0,840.22,927.89Z" transform="translate(-695.52 -699.97)"/><path class="cls-3" d="M774.8,930.64a2.69,2.69,0,0,0-2.64-2.63,4.56,4.56,0,0,0-2.61.68,2.34,2.34,0,0,0-1.32,1.1s0,0,0,0a5.61,5.61,0,0,0-.41.55,2.65,2.65,0,0,0,2.27,4H771a2.72,2.72,0,0,0,1.53-.53,2.53,2.53,0,0,0,.42-.18,2.91,2.91,0,0,0,1-1A2.55,2.55,0,0,0,774.8,930.64Z" transform="translate(-695.52 -699.97)"/><path class="cls-3" d="M837.29,916.85a16.57,16.57,0,0,0-5.62.11,2.39,2.39,0,0,0-1.7,1.52,2.27,2.27,0,0,0-.22,2.91c1.13,1.51,3.2,2.38,4.91,1.15l.08-.07a19.94,19.94,0,0,0,2.55-.55,2.69,2.69,0,0,0,1.94-2.54A2.62,2.62,0,0,0,837.29,916.85Z" transform="translate(-695.52 -699.97)"/><path class="cls-3" d="M854.59,927.39l-.53,0a1.9,1.9,0,0,0-.82.11,3.32,3.32,0,0,0-1,0l-.94.17a2.64,2.64,0,0,0,.7,5.17l2.63-.16a2.64,2.64,0,0,0,0-5.27Z" transform="translate(-695.52 -699.97)"/><path class="cls-3" d="M878.62,927.26a4.09,4.09,0,0,0-2.84-1.19,4.28,4.28,0,0,0-2.87,1.11,2.62,2.62,0,0,0-.78,1.86,2.68,2.68,0,0,0,.78,1.87,2.65,2.65,0,0,0,1.86.77,3.06,3.06,0,0,0,.89-.19,2.59,2.59,0,0,0,3-.51A2.67,2.67,0,0,0,878.62,927.26Z" transform="translate(-695.52 -699.97)"/><path class="cls-3" d="M816.72,931a2.72,2.72,0,0,0-1.86-.77h-1A2.72,2.72,0,0,0,812,931a2.62,2.62,0,0,0,0,3.73,2.72,2.72,0,0,0,1.86.77h1a2.72,2.72,0,0,0,1.86-.77,2.64,2.64,0,0,0,0-3.73Z" transform="translate(-695.52 -699.97)"/><path class="cls-3" d="M807.36,919.34a2.74,2.74,0,0,0-1.86-.77h-.78a2.76,2.76,0,0,0-1.86.77,2.64,2.64,0,0,0,0,3.73,2.74,2.74,0,0,0,1.86.77h.78a2.72,2.72,0,0,0,1.86-.77,2.64,2.64,0,0,0,0-3.73Z" transform="translate(-695.52 -699.97)"/><path class="cls-4" d="M901.4,920.82a12.32,12.32,0,0,0-2.28-.72,4.42,4.42,0,0,0-4.08.08c.2-32.24.46-64.47.53-96.71,0-14-.28-28.32-4.12-41.9-3.7-13-11.06-24.42-22.23-32.27-12.42-8.73-27.52-12.81-42.33-15.28,3.91-6.19,3-14.16-.84-20.15a32.77,32.77,0,0,0-38.51-11.65,25.16,25.16,0,0,0-13.36,13.39,23.28,23.28,0,0,0,0,19.11c-23.66,6.13-47.5,20-55.68,44.29-5,14.79-4.53,31-4.94,46.45-.46,16.83-.66,33.67-.23,50.5a510.74,510.74,0,0,0,4.3,56.08c0,.37.62.21.57-.16-4.49-32.76-5-65.9-4.24-98.91.17-8,.38-15.89.7-23.83a131.74,131.74,0,0,1,2.47-22.93A58.19,58.19,0,0,1,725,766.86a61.34,61.34,0,0,1,12.46-13.76c10.66-8.79,23.68-14.42,37-17.84.05.11.1.23.16.34.18.33.69,0,.51-.3l-.1-.19,1.07-.27a.29.29,0,0,0-.15-.56c-.4.09-.79.2-1.18.3-5.34-11,.27-25.08,10.8-30.76,12.26-6.61,28.82-2.8,37.86,7.52,5.39,6.16,7.56,15.37,2.88,22.57h0c-.37-.06-.53.5-.16.56,13.4,2.2,26.94,5.67,38.7,12.67a56.9,56.9,0,0,1,15.48,13.26A58.69,58.69,0,0,1,890,778.68c4.39,13.32,5,27.59,5,41.51.06,16.83-.17,33.66-.26,50.49q-.13,25-.28,49.92l-.05,0a.26.26,0,0,0,.05.43l-.05,8a.3.3,0,0,0,.59,0c0-2.75,0-5.49,0-8.24a3.32,3.32,0,0,1,1.81-.66.27.27,0,0,0,.27.2,13.14,13.14,0,0,1,1.78.24,4.58,4.58,0,0,1,2.46,3.14,5.46,5.46,0,0,1-.13,2.52c-2.08,2.86-5.38,4.24-8.76,5a101,101,0,0,1-12,1.52q-13.73,1.36-27.48,2.3-27.24,1.85-54.54,2-15.39.07-30.77-.41a.28.28,0,0,0-.26.39l-20.82-.6c-8.15-.23-16.31-.46-24.46-.74-3.72-.12-8-.33-10.5-3.54a4.72,4.72,0,0,1-.71-5.2,3.72,3.72,0,0,1,4.69-1.77c.34.17.64-.34.3-.5a4.23,4.23,0,0,0-5.3,1.67c-1.42,2.07-.72,4.73.84,6.51,1.95,2.23,4.84,3,7.69,3.26,4.07.38,8.22.33,12.31.45q18.15.57,36.3,1a2.56,2.56,0,0,1,.1-.34,868.59,868.59,0,0,0,112.9-3.89c7-.71,16.9-.52,21.27-7.17a.27.27,0,0,0-.12-.4,5.18,5.18,0,0,0-1.25-4.66,14.76,14.76,0,0,1,9.09,13c.26,7.39-5.91,12-12.28,14.08a.29.29,0,0,0-.53.17q-.39.14-.78.24a65,65,0,0,1-11.07,1.86q-7.64.76-15.28,1.39-15.13,1.26-30.31,2-30.35,1.53-60.74,1.34c-20.14-.09-40.33-.48-60.44-1.7-8.36-.51-19.2-2.68-21.81-12.08-2.22-8,5.08-13.69,11.53-16.57a48.27,48.27,0,0,1,5.23-1.95c.36-.11.21-.68-.15-.56-6.34,2-14,5.33-16.72,11.91-3.06,7.44,2.59,14.68,9.29,17.44,4.4,1.82,9.22,2.22,13.92,2.46,5.44.29,10.88.51,16.32.71q16.49.63,33,.84c22,.28,44,0,66-1q16.47-.76,32.92-2.08,8.22-.66,16.42-1.47a71,71,0,0,0,11.69-1.86c.39-.1.78-.22,1.17-.34,1.49,6.19-4.44,10.77-9.74,12.34a63.5,63.5,0,0,1-8.65,1.67q-5.19.78-10.39,1.44c-13,1.62-26.15,2.64-39.28,3.23-26.42,1.17-52.87.59-79.29-.29-7.17-.24-14.47-.14-21.61-.88-3.39-.34-6.94-1.17-9.62-3.38s-4.32-5.37-3.67-8.77c.07-.37-.5-.53-.57-.16-.94,5,2.65,9.38,7,11.27,5.73,2.49,12.64,1.95,18.74,2.17,14.22.5,28.44,1,42.67,1.17,28.48.41,57.05-.23,85.34-3.74q5.71-.72,11.41-1.58a44.12,44.12,0,0,0,10.41-2.41c4.78-2,9.14-6.79,7.81-12.26,5.86-1.94,11.64-5.81,12.58-12.36A15.33,15.33,0,0,0,901.4,920.82Z" transform="translate(-695.52 -699.97)"/><path class="cls-4" d="M760.11,753.44a53.73,53.73,0,0,0-18.37,13.32c-.25.28.16.69.42.41a53.42,53.42,0,0,1,18.25-13.23C760.75,753.79,760.45,753.28,760.11,753.44Z" transform="translate(-695.52 -699.97)"/><path class="cls-4" d="M737,772.59a18.92,18.92,0,0,0-3.59,7.15.3.3,0,0,0,.57.16,18.12,18.12,0,0,1,3.43-6.9C737.69,772.71,737.27,772.3,737,772.59Z" transform="translate(-695.52 -699.97)"/><path class="cls-4" d="M872.08,770.3a38.66,38.66,0,0,0-11.72-12c-.32-.2-.61.3-.3.51a37.93,37.93,0,0,1,11.51,11.74C871.77,770.91,872.28,770.62,872.08,770.3Z" transform="translate(-695.52 -699.97)"/><path class="cls-4" d="M875.73,776.63c-.22-.3-.73,0-.51.29a15.27,15.27,0,0,1,3,8.06c0,.37.61.37.58,0A15.82,15.82,0,0,0,875.73,776.63Z" transform="translate(-695.52 -699.97)"/><path class="cls-5" d="M829.29,862.88c.31-1.72.58-3.45.82-5.18a212.23,212.23,0,0,0,6.56-39.8c3.47-16.09,5.83-32.38,5.44-48.95,0-1-1.49-1.52-2-.53-7.35,14.9-9.09,30.85-9.77,47a480.79,480.79,0,0,0-5,49.82.92.92,0,0,0,.51.91,1.14,1.14,0,0,0,.52.36c-.21.93-.43,1.87-.66,2.8a1.06,1.06,0,0,0,2,.56c.32-1.25.61-2.51.88-3.78a.83.83,0,0,0,.26-.51C829,864.69,829.16,863.78,829.29,862.88Z" transform="translate(-695.52 -699.97)"/><path class="cls-6" d="M826.5,765.75h0a2.7,2.7,0,0,0,0-.28c-.18-1.27-2-.82-2.09.28a559.11,559.11,0,0,0,0,106c.13,1.35,2.26,1.36,2.13,0,0-.05,0-.1,0-.15a1.08,1.08,0,0,0,.21-.55C830.24,836,831.46,800.68,826.5,765.75Z" transform="translate(-695.52 -699.97)"/><path class="cls-7" d="M814.31,759.26h0a2.68,2.68,0,0,0-.07-.27c-.31-1.25-2.06-.6-2,.5a558.41,558.41,0,0,0,11.2,105.37c.27,1.33,2.39,1.12,2.12-.22l0-.15a1.15,1.15,0,0,0,.15-.57C825.49,828.73,823,793.46,814.31,759.26Z" transform="translate(-695.52 -699.97)"/><path class="cls-7" d="M788,766.64h0l-.14-.25c-.61-1.13-2.14-.08-1.86,1a559.31,559.31,0,0,0,36.76,99.39c.59,1.22,2.59.49,2-.74l-.06-.14a1.17,1.17,0,0,0,0-.59C815.87,831.24,804.74,797.67,788,766.64Z" transform="translate(-695.52 -699.97)"/><path class="cls-5" d="M825.53,869.46a773.56,773.56,0,0,0-21.6-104,1.07,1.07,0,0,0-2.09.28c-2.74,35.41,15.73,67.45,20.92,101.72a.84.84,0,0,0,.46.68c.09.62.18,1.23.26,1.85C823.67,871.38,825.72,870.8,825.53,869.46Z" transform="translate(-695.52 -699.97)"/><path class="cls-6" d="M823.8,872.53a142.45,142.45,0,0,0-12.16-40.16q-1.77-4.38-3.8-8.65c-6.48-13.62-15.08-30-29.73-36.2a1.07,1.07,0,0,0-1.45,1.46,626.65,626.65,0,0,0,35.84,68.17q1,2.1,2,4.18a.91.91,0,0,0,.1.89c.47.71.93,1.42,1.39,2.13s.84,1.68,1.28,2.52a.89.89,0,0,0,.71.52l1.59,2.44c.12.84.26,1.69.36,2.53a1.19,1.19,0,0,0,1.83.82l.11.17A1.07,1.07,0,0,0,823.8,872.53Z" transform="translate(-695.52 -699.97)"/><path class="cls-8" d="M848,883.12c-3.87-9.11-13.43-15.89-23.58-14.43-10,1.43-17.08,10.45-18.35,20.07-1.69,12.72,5.23,24.34,14.27,32.66a.39.39,0,0,0,.65-.34c9,3.55,19-.81,24.27-8.6A31.72,31.72,0,0,0,848,883.12Z" transform="translate(-695.52 -699.97)"/><path class="cls-9" d="M817.19,873.18a.76.76,0,0,0,0,1.52A.76.76,0,0,0,817.19,873.18Z" transform="translate(-695.52 -699.97)"/><path class="cls-9" d="M815.87,877a.76.76,0,0,0,0,1.52A.76.76,0,0,0,815.87,877Z" transform="translate(-695.52 -699.97)"/><path class="cls-9" d="M814.92,881.14a.76.76,0,0,0,0,1.52A.76.76,0,0,0,814.92,881.14Z" transform="translate(-695.52 -699.97)"/><path class="cls-9" d="M814.73,884.55a.76.76,0,0,0,0,1.52A.76.76,0,0,0,814.73,884.55Z" transform="translate(-695.52 -699.97)"/><path class="cls-9" d="M814,888.91v.19a.76.76,0,0,0,1.52,0v-.19A.76.76,0,0,0,814,888.91Z" transform="translate(-695.52 -699.97)"/><path class="cls-9" d="M814.54,892.33v.19a.76.76,0,0,0,1.52,0v-.19A.76.76,0,0,0,814.54,892.33Z" transform="translate(-695.52 -699.97)"/><path class="cls-9" d="M815.11,895.74v.19a.76.76,0,0,0,1.51,0v-.19A.76.76,0,0,0,815.11,895.74Z" transform="translate(-695.52 -699.97)"/><path class="cls-9" d="M815.68,899.72v.19a.76.76,0,0,0,1.51,0v-.19A.76.76,0,0,0,815.68,899.72Z" transform="translate(-695.52 -699.97)"/><path class="cls-9" d="M818.15,903.86l-.19-.56c-.31-.92-1.77-.53-1.46.4.06.19.13.38.19.57C817,905.19,818.47,904.79,818.15,903.86Z" transform="translate(-695.52 -699.97)"/><path class="cls-9" d="M817.57,907.3v.57a.76.76,0,0,0,1.52,0v-.57A.76.76,0,0,0,817.57,907.3Z" transform="translate(-695.52 -699.97)"/><path class="cls-9" d="M820.05,910.88l-.19-.57c-.31-.92-1.78-.53-1.46.4.06.19.12.38.19.57C818.9,912.2,820.36,911.81,820.05,910.88Z" transform="translate(-695.52 -699.97)"/><path class="cls-9" d="M819.47,914.31v.19a.76.76,0,0,0,1.51,0v-.19A.76.76,0,0,0,819.47,914.31Z" transform="translate(-695.52 -699.97)"/><path class="cls-9" d="M821.71,916.24l-.19-.19a.76.76,0,0,0-1.07,1.08l.19.18C821.33,918,822.4,916.93,821.71,916.24Z" transform="translate(-695.52 -699.97)"/><path class="cls-9" d="M822.31,919.24a.76.76,0,0,0,0,1.52A.76.76,0,0,0,822.31,919.24Z" transform="translate(-695.52 -699.97)"/><path class="cls-9" d="M819.09,918.48a.76.76,0,0,0,0,1.52A.76.76,0,0,0,819.09,918.48Z" transform="translate(-695.52 -699.97)"/><path class="cls-9" d="M815.87,915.83V916a.76.76,0,0,0,1.51,0v-.19A.76.76,0,0,0,815.87,915.83Z" transform="translate(-695.52 -699.97)"/><path class="cls-9" d="M814.16,911.09H814a.76.76,0,0,0,0,1.52h.19A.76.76,0,0,0,814.16,911.09Z" transform="translate(-695.52 -699.97)"/><path class="cls-9" d="M811.7,906.92a.76.76,0,0,0,0,1.52A.76.76,0,0,0,811.7,906.92Z" transform="translate(-695.52 -699.97)"/><path class="cls-9" d="M811.58,904.08c-.07-.12-.13-.25-.2-.38-.44-.87-1.75-.1-1.3.77l.19.38C810.71,905.72,812,905,811.58,904.08Z" transform="translate(-695.52 -699.97)"/><path class="cls-9" d="M808.85,900.48v.19a.76.76,0,0,0,1.52,0v-.19A.76.76,0,0,0,808.85,900.48Z" transform="translate(-695.52 -699.97)"/><path class="cls-9" d="M809.23,896.88a.76.76,0,0,0,0,1.51A.76.76,0,0,0,809.23,896.88Z" transform="translate(-695.52 -699.97)"/><path class="cls-9" d="M808.85,893.46a.76.76,0,0,0,0,1.52A.76.76,0,0,0,808.85,893.46Z" transform="translate(-695.52 -699.97)"/><path class="cls-9" d="M808.85,889.86a.76.76,0,0,0,0,1.52A.76.76,0,0,0,808.85,889.86Z" transform="translate(-695.52 -699.97)"/><path class="cls-9" d="M808.85,886.64a.76.76,0,0,0,0,1.52A.76.76,0,0,0,808.85,886.64Z" transform="translate(-695.52 -699.97)"/><path class="cls-9" d="M808.66,884.93v.19a.76.76,0,0,0,1.52,0v-.19A.76.76,0,0,0,808.66,884.93Z" transform="translate(-695.52 -699.97)"/><path class="cls-9" d="M810.37,881.14a.76.76,0,0,0,0,1.52A.76.76,0,0,0,810.37,881.14Z" transform="translate(-695.52 -699.97)"/><path class="cls-9" d="M812.07,878.49a.76.76,0,0,0,0,1.51A.76.76,0,0,0,812.07,878.49Z" transform="translate(-695.52 -699.97)"/><path class="cls-9" d="M813.59,875.83h-.19a.76.76,0,0,0,0,1.52h.19A.76.76,0,0,0,813.59,875.83Z" transform="translate(-695.52 -699.97)"/><path class="cls-9" d="M821.36,870.34a.76.76,0,0,0,0,1.51A.76.76,0,0,0,821.36,870.34Z" transform="translate(-695.52 -699.97)"/><path class="cls-9" d="M819.85,875.46v.19a.76.76,0,0,0,1.51,0v-.19A.76.76,0,0,0,819.85,875.46Z" transform="translate(-695.52 -699.97)"/><path class="cls-9" d="M820.42,878.68a.76.76,0,0,0,0,1.51A.76.76,0,0,0,820.42,878.68Z" transform="translate(-695.52 -699.97)"/><path class="cls-9" d="M820,882.09v.19a.76.76,0,0,0,1.51,0v-.19A.76.76,0,0,0,820,882.09Z" transform="translate(-695.52 -699.97)"/><path class="cls-9" d="M821.17,884.93a.76.76,0,0,0,0,1.52A.76.76,0,0,0,821.17,884.93Z" transform="translate(-695.52 -699.97)"/><path class="cls-9" d="M821,889.29v.19a.76.76,0,0,0,1.52,0v-.19A.76.76,0,0,0,821,889.29Z" transform="translate(-695.52 -699.97)"/><path class="cls-9" d="M822.31,891.38a.76.76,0,0,0,0,1.51A.76.76,0,0,0,822.31,891.38Z" transform="translate(-695.52 -699.97)"/><path class="cls-9" d="M822.12,894.6v.19a.76.76,0,0,0,1.52,0v-.19A.76.76,0,0,0,822.12,894.6Z" transform="translate(-695.52 -699.97)"/><path class="cls-9" d="M822.31,896.88v.18a.76.76,0,0,0,1.52,0v-.18A.76.76,0,0,0,822.31,896.88Z" transform="translate(-695.52 -699.97)"/><path class="cls-9" d="M824.17,900.32l-.19-.19a.76.76,0,0,0-1.07,1.07l.19.19C823.79,902.08,824.87,901,824.17,900.32Z" transform="translate(-695.52 -699.97)"/><path class="cls-9" d="M824.59,903.32a.76.76,0,0,0,0,1.52A.76.76,0,0,0,824.59,903.32Z" transform="translate(-695.52 -699.97)"/><path class="cls-9" d="M824.4,906.54a.76.76,0,0,0,0,1.52A.76.76,0,0,0,824.4,906.54Z" transform="translate(-695.52 -699.97)"/><path class="cls-9" d="M825.53,910.33a.76.76,0,0,0,0,1.52A.76.76,0,0,0,825.53,910.33Z" transform="translate(-695.52 -699.97)"/><path class="cls-9" d="M825.15,914.12v.19a.76.76,0,0,0,1.52,0v-.19A.76.76,0,0,0,825.15,914.12Z" transform="translate(-695.52 -699.97)"/><path class="cls-9" d="M826.29,916.78a.76.76,0,0,0,0,1.52A.76.76,0,0,0,826.29,916.78Z" transform="translate(-695.52 -699.97)"/><path class="cls-9" d="M825.91,920.19v.19a.76.76,0,0,0,1.52,0v-.19A.76.76,0,0,0,825.91,920.19Z" transform="translate(-695.52 -699.97)"/><path class="cls-9" d="M829,921.33v.19a.76.76,0,0,0,1.51,0v-.19A.76.76,0,0,0,829,921.33Z" transform="translate(-695.52 -699.97)"/><path class="cls-9" d="M830.46,918.3a.76.76,0,0,0,0,1.51A.76.76,0,0,0,830.46,918.3Z" transform="translate(-695.52 -699.97)"/><path class="cls-9" d="M830.84,915.45a.76.76,0,0,0,0,1.52A.76.76,0,0,0,830.84,915.45Z" transform="translate(-695.52 -699.97)"/><path class="cls-9" d="M831,912.61a.76.76,0,0,0,0,1.51A.76.76,0,0,0,831,912.61Z" transform="translate(-695.52 -699.97)"/><path class="cls-9" d="M830.65,908.82V909a.76.76,0,0,0,1.52,0v-.19A.76.76,0,0,0,830.65,908.82Z" transform="translate(-695.52 -699.97)"/><path class="cls-9" d="M830.46,904.46v.38a.76.76,0,0,0,1.52,0v-.38A.76.76,0,0,0,830.46,904.46Z" transform="translate(-695.52 -699.97)"/><path class="cls-9" d="M831,901.05a.76.76,0,0,0,0,1.51A.76.76,0,0,0,831,901.05Z" transform="translate(-695.52 -699.97)"/><path class="cls-9" d="M830.84,898.39a.76.76,0,0,0,0,1.52A.76.76,0,0,0,830.84,898.39Z" transform="translate(-695.52 -699.97)"/><path class="cls-9" d="M831.76,895.39l-.19-.19c-.69-.69-1.77.38-1.08,1.07l.19.19C831.37,897.15,832.45,896.08,831.76,895.39Z" transform="translate(-695.52 -699.97)"/><path class="cls-9" d="M829.7,891.57v.19a.76.76,0,0,0,1.52,0v-.19A.76.76,0,0,0,829.7,891.57Z" transform="translate(-695.52 -699.97)"/><path class="cls-9" d="M829.89,887.78a.76.76,0,0,0,0,1.51A.76.76,0,0,0,829.89,887.78Z" transform="translate(-695.52 -699.97)"/><path class="cls-9" d="M829.51,884.74a.76.76,0,0,0,0,1.52A.76.76,0,0,0,829.51,884.74Z" transform="translate(-695.52 -699.97)"/><path class="cls-9" d="M828.76,881.9a.76.76,0,0,0,0,1.52A.76.76,0,0,0,828.76,881.9Z" transform="translate(-695.52 -699.97)"/><path class="cls-9" d="M827.43,879.44v.19a.76.76,0,0,0,1.52,0v-.19A.76.76,0,0,0,827.43,879.44Z" transform="translate(-695.52 -699.97)"/><path class="cls-9" d="M826.86,874.89a.76.76,0,0,0,0,1.51A.76.76,0,0,0,826.86,874.89Z" transform="translate(-695.52 -699.97)"/><path class="cls-9" d="M825.91,871.48a.76.76,0,0,0,0,1.51A.76.76,0,0,0,825.91,871.48Z" transform="translate(-695.52 -699.97)"/><path class="cls-9" d="M828.38,869a.76.76,0,0,0,0,1.52A.76.76,0,0,0,828.38,869Z" transform="translate(-695.52 -699.97)"/><path class="cls-9" d="M832.14,872.27l-.19-.19a.76.76,0,0,0-1.08,1.07l.19.19C831.75,874,832.83,873,832.14,872.27Z" transform="translate(-695.52 -699.97)"/><path class="cls-9" d="M832.55,875.27v.19a.76.76,0,0,0,1.51,0v-.19A.76.76,0,0,0,832.55,875.27Z" transform="translate(-695.52 -699.97)"/><path class="cls-9" d="M835.55,878.33a1.7,1.7,0,0,1-.19-.19c-.69-.69-1.77.38-1.07,1.07l.18.19A.76.76,0,0,0,835.55,878.33Z" transform="translate(-695.52 -699.97)"/><path class="cls-9" d="M835.39,881.9v.19a.76.76,0,0,0,1.52,0v-.19A.76.76,0,0,0,835.39,881.9Z" transform="translate(-695.52 -699.97)"/><path class="cls-9" d="M836.91,884.18h-.19a.76.76,0,0,0,0,1.51h.19A.76.76,0,0,0,836.91,884.18Z" transform="translate(-695.52 -699.97)"/><path class="cls-9" d="M836.53,888.16v.19a.76.76,0,0,0,1.51,0v-.19A.76.76,0,0,0,836.53,888.16Z" transform="translate(-695.52 -699.97)"/><path class="cls-9" d="M836.91,891v.19a.76.76,0,0,0,1.51,0V891A.76.76,0,0,0,836.91,891Z" transform="translate(-695.52 -699.97)"/><path class="cls-9" d="M837.48,893.27a.76.76,0,0,0,0,1.52A.76.76,0,0,0,837.48,893.27Z" transform="translate(-695.52 -699.97)"/><path class="cls-9" d="M837.66,896.5a.76.76,0,0,0,0,1.51A.76.76,0,0,0,837.66,896.5Z" transform="translate(-695.52 -699.97)"/><path class="cls-9" d="M836.91,899.91v.19a.76.76,0,0,0,1.51,0v-.19A.76.76,0,0,0,836.91,899.91Z" transform="translate(-695.52 -699.97)"/><path class="cls-9" d="M837.1,901.61a.76.76,0,0,0,0,1.52A.76.76,0,0,0,837.1,901.61Z" transform="translate(-695.52 -699.97)"/><path class="cls-9" d="M836,905.41v.18a.76.76,0,0,0,1.52,0v-.18A.76.76,0,0,0,836,905.41Z" transform="translate(-695.52 -699.97)"/><path class="cls-9" d="M836.53,907.87a.76.76,0,0,0,0,1.52A.76.76,0,0,0,836.53,907.87Z" transform="translate(-695.52 -699.97)"/><path class="cls-9" d="M835.2,912v.19a.76.76,0,0,0,1.52,0V912A.76.76,0,0,0,835.2,912Z" transform="translate(-695.52 -699.97)"/><path class="cls-9" d="M835,914.69a.76.76,0,0,0,0,1.52A.76.76,0,0,0,835,914.69Z" transform="translate(-695.52 -699.97)"/><path class="cls-9" d="M833.12,918.67v.19a.76.76,0,0,0,1.51,0v-.19A.76.76,0,0,0,833.12,918.67Z" transform="translate(-695.52 -699.97)"/><path class="cls-9" d="M832.74,920.57a.76.76,0,0,0,0,1.52A.76.76,0,0,0,832.74,920.57Z" transform="translate(-695.52 -699.97)"/><path class="cls-9" d="M836.34,918.86a.76.76,0,0,0,0,1.52A.76.76,0,0,0,836.34,918.86Z" transform="translate(-695.52 -699.97)"/><path class="cls-9" d="M839.37,915.45a.76.76,0,0,0,0,1.52A.76.76,0,0,0,839.37,915.45Z" transform="translate(-695.52 -699.97)"/><path class="cls-9" d="M841.08,913.75a.76.76,0,0,0,0,1.51A.76.76,0,0,0,841.08,913.75Z" transform="translate(-695.52 -699.97)"/><path class="cls-9" d="M842.21,912a.76.76,0,0,0,0,1.52A.76.76,0,0,0,842.21,912Z" transform="translate(-695.52 -699.97)"/><path class="cls-9" d="M843.54,908.63h-.19a.76.76,0,0,0,0,1.51h.19A.76.76,0,0,0,843.54,908.63Z" transform="translate(-695.52 -699.97)"/><path class="cls-9" d="M844.49,905.78a.76.76,0,0,0,0,1.52A.76.76,0,0,0,844.49,905.78Z" transform="translate(-695.52 -699.97)"/><path class="cls-9" d="M845.06,902.94a.76.76,0,0,0,0,1.52A.76.76,0,0,0,845.06,902.94Z" transform="translate(-695.52 -699.97)"/><path class="cls-9" d="M845.44,900.48a.76.76,0,0,0,0,1.51A.76.76,0,0,0,845.44,900.48Z" transform="translate(-695.52 -699.97)"/><path class="cls-9" d="M845.63,897.63a.76.76,0,0,0,0,1.52A.76.76,0,0,0,845.63,897.63Z" transform="translate(-695.52 -699.97)"/><path class="cls-9" d="M845.63,893.84a.76.76,0,0,0,0,1.52A.76.76,0,0,0,845.63,893.84Z" transform="translate(-695.52 -699.97)"/><path class="cls-9" d="M844.3,891.57v.19a.76.76,0,0,0,1.52,0v-.19A.76.76,0,0,0,844.3,891.57Z" transform="translate(-695.52 -699.97)"/><path class="cls-9" d="M843.35,888v.19a.76.76,0,0,0,1.52,0V888A.76.76,0,0,0,843.35,888Z" transform="translate(-695.52 -699.97)"/><path class="cls-9" d="M843.16,884.55a.76.76,0,0,0,0,1.52A.76.76,0,0,0,843.16,884.55Z" transform="translate(-695.52 -699.97)"/><path class="cls-9" d="M841.27,881.9v.19a.76.76,0,0,0,1.51,0v-.19A.76.76,0,0,0,841.27,881.9Z" transform="translate(-695.52 -699.97)"/><path class="cls-9" d="M839.18,879.44v.19a.76.76,0,0,0,1.52,0v-.19A.76.76,0,0,0,839.18,879.44Z" transform="translate(-695.52 -699.97)"/><path class="cls-9" d="M838.61,877a.76.76,0,0,0,0,1.52A.76.76,0,0,0,838.61,877Z" transform="translate(-695.52 -699.97)"/><path class="cls-9" d="M836.94,875.3c-.06.06-.13.12-.19.19a.76.76,0,0,0,1.07,1.07l.19-.19A.76.76,0,0,0,836.94,875.3Z" transform="translate(-695.52 -699.97)"/><path class="cls-9" d="M835.77,873a.76.76,0,0,0,0,1.52A.76.76,0,0,0,835.77,873Z" transform="translate(-695.52 -699.97)"/><path class="cls-9" d="M834.06,870.91a.76.76,0,0,0,0,1.51A.76.76,0,0,0,834.06,870.91Z" transform="translate(-695.52 -699.97)"/><path class="cls-10" d="M807.33,886.63c-.78-4.81-3.78-9-9.11-8.74a8.18,8.18,0,0,0-7.62,8.45,8.36,8.36,0,0,0,7.88,7.88c4.21.24,7.52-2.9,8.44-6.76A.77.77,0,0,0,807.33,886.63Z" transform="translate(-695.52 -699.97)"/><path class="cls-11" d="M792.36,885.31a.76.76,0,0,0,0,1.52A.76.76,0,0,0,792.36,885.31Z" transform="translate(-695.52 -699.97)"/><path class="cls-11" d="M793.88,887.78a.76.76,0,0,0,0,1.51A.76.76,0,0,0,793.88,887.78Z" transform="translate(-695.52 -699.97)"/><path class="cls-11" d="M796.53,889.1a.76.76,0,0,0,0,1.52A.76.76,0,0,0,796.53,889.1Z" transform="translate(-695.52 -699.97)"/><path class="cls-11" d="M799.34,889.7l-.19-.18c-.69-.7-1.76.38-1.07,1.07l.19.19A.76.76,0,0,0,799.34,889.7Z" transform="translate(-695.52 -699.97)"/><path class="cls-11" d="M800.54,889.52l-.19.18a.76.76,0,0,0,1.08,1.08,1.7,1.7,0,0,1,.19-.19A.76.76,0,0,0,800.54,889.52Z" transform="translate(-695.52 -699.97)"/><path class="cls-11" d="M802.6,888.72a.76.76,0,0,0,0,1.52A.76.76,0,0,0,802.6,888.72Z" transform="translate(-695.52 -699.97)"/><path class="cls-11" d="M792.93,882.47a.76.76,0,0,0,0,1.52A.76.76,0,0,0,792.93,882.47Z" transform="translate(-695.52 -699.97)"/><path class="cls-11" d="M796.15,882.85a.76.76,0,0,0,0,1.51A.76.76,0,0,0,796.15,882.85Z" transform="translate(-695.52 -699.97)"/><path class="cls-11" d="M798.43,883h-.19a.76.76,0,0,0,0,1.51h.19A.76.76,0,0,0,798.43,883Z" transform="translate(-695.52 -699.97)"/><path class="cls-11" d="M800.89,884.18h-.19a.76.76,0,0,0,0,1.51h.19A.76.76,0,0,0,800.89,884.18Z" transform="translate(-695.52 -699.97)"/><path class="cls-11" d="M802.6,884.93h-.19a.76.76,0,0,0,0,1.52h.19A.76.76,0,0,0,802.6,884.93Z" transform="translate(-695.52 -699.97)"/><path class="cls-11" d="M805.25,885.69a.72.72,0,0,1-1.33,0,.76.76,0,0,0,0,1.52.69.69,0,0,0,.67-.44.68.68,0,0,0,.66.44A.76.76,0,0,0,805.25,885.69Z" transform="translate(-695.52 -699.97)"/><path class="cls-11" d="M804.3,888.72v.19a.76.76,0,0,0,1.52,0v-.19A.76.76,0,0,0,804.3,888.72Z" transform="translate(-695.52 -699.97)"/><path class="cls-11" d="M795.58,879.06a.76.76,0,0,0,0,1.51A.76.76,0,0,0,795.58,879.06Z" transform="translate(-695.52 -699.97)"/><path class="cls-11" d="M794.26,880.57a.76.76,0,0,0,0,1.52A.76.76,0,0,0,794.26,880.57Z" transform="translate(-695.52 -699.97)"/><path class="cls-11" d="M798.62,878.68h-.38a.76.76,0,0,0,0,1.51h.38A.76.76,0,0,0,798.62,878.68Z" transform="translate(-695.52 -699.97)"/><path class="cls-11" d="M801.08,879.25a.76.76,0,0,0,0,1.51A.76.76,0,0,0,801.08,879.25Z" transform="translate(-695.52 -699.97)"/><path class="cls-11" d="M802.79,880.38h-.19a.76.76,0,0,0,0,1.52h.19A.76.76,0,0,0,802.79,880.38Z" transform="translate(-695.52 -699.97)"/><path class="cls-11" d="M805.22,883.07l-.38-.38h0a.69.69,0,0,0-.71-.59.77.77,0,0,0-.54,1.28.62.62,0,0,0,.2.39l.38.38A.76.76,0,0,0,805.22,883.07Z" transform="translate(-695.52 -699.97)"/><path class="cls-11" d="M805.63,884.18a.76.76,0,0,0,0,1.51A.76.76,0,0,0,805.63,884.18Z" transform="translate(-695.52 -699.97)"/><path class="cls-12" d="M833.05,862.9a3.81,3.81,0,0,0-1,.2c1.16-1.86,1.59-3.75-.21-4.9-2.08-1.33-3.68.35-4.83,2.64.07-2.79-.51-5.2-3-4.42-1.55.48-1.92,2.27-2.17,3.65a27.91,27.91,0,0,0-.38,3.39,15.32,15.32,0,0,0-1.33-2.4c-1-1.42-2.66-3.45-4.64-2.52s-1.77,3.61-1,5.32a10.35,10.35,0,0,0,2,2.92c-2.87-1.12-5.76-1.66-5.4.92.25,1.74,2.68,2.81,4.15,3.24a9.07,9.07,0,0,0,5.41-.14,18.1,18.1,0,0,0,8.91-1.28c1.74-.75,4.91-2.19,5.5-4.21A1.79,1.79,0,0,0,833.05,862.9Z" transform="translate(-695.52 -699.97)"/><path class="cls-13" d="M767.87,876.32c2.42-4.64-2.73-8.09-6.3-9.84a.36.36,0,0,0-.52.4,8.76,8.76,0,0,1,.05,3.64c-.53,2-2.62,2.87-4.2,1.47-2.07-1.83-1.24-4.74-.55-7a.13.13,0,0,0,0-.06.36.36,0,0,0,.06-.69A24.67,24.67,0,0,0,736,867.13a.36.36,0,0,0,.08.65c2.18.9,3.45,4,1.09,5.48a2.23,2.23,0,0,1-3.09-3.11.3.3,0,0,0,0-.36.35.35,0,0,0-.52-.34,24.27,24.27,0,0,0-9.73,11.67c-.09.23.14.44.35.45,1.79.09,3.14,2.62,1.36,3.77a2.26,2.26,0,0,1-3.23-.87.36.36,0,0,0-.61,0c-1.66,2.27-3.31,4.55-5,6.82a.35.35,0,0,0,0,.43A22.59,22.59,0,0,0,728.4,898c.28,0,.59-.25.4-.52-1.74-2.54,1.42-4.91,3.8-3.72,2.13,1,2.6,3.53,2.21,5.68a.38.38,0,0,0,.48.42,25.59,25.59,0,0,0,15.35,5c.28,0,.5-.41.25-.61-2.7-2.11-1.39-6.62,2.23-6.31,2.83.25,2.85,3.48,5.25,4.34,4.3,1.53,6.65-3.44,7.75-6.61a.38.38,0,0,0-.17-.4c-1.39-1.06-2.75-2.52-2.51-4.41a2.22,2.22,0,0,1,1.42-2,1.72,1.72,0,0,1,2.57,1.5.37.37,0,0,0,.67.18,14.74,14.74,0,0,0,1.36-9.8,86.69,86.69,0,0,1,9.75,37.53.36.36,0,0,0,.71,0A87.41,87.41,0,0,0,767.87,876.32Zm-30.36,8.41c-1.33-.18-3.57-1-3.65-2.6s2.23-1.93,3.47-1.83a6.11,6.11,0,0,1,4.32,1.68l.17-.06c1.2-.47,1.86,1.39.85,2A8.21,8.21,0,0,1,737.51,884.73Zm9.23,10.53c-.24,1.21-1.42,2.81-2.79,1.94-1.11-.71-1.24-2.6-1.32-3.76a8,8,0,0,1,.6-4.11.67.67,0,0,1,.38-.31.83.83,0,0,1,1.47-.08A30.57,30.57,0,0,1,746.2,892,5.74,5.74,0,0,1,746.74,895.26Zm3.9-15.72c-.6.25-1.54-.18-2.13-.36a16.14,16.14,0,0,1-2.26-.85c-1.34-.63-2.56-1.83-2-3.44,1.09-3.46,6.53,0,7,2.27a1,1,0,0,1,0,.3v0A1.26,1.26,0,0,1,750.64,879.54Zm5.25,10.89c-.54,1.06-1.81,2.1-2.91,1-.83-.82-.85-2.34-.9-3.42a9.19,9.19,0,0,1,.18-3.39.89.89,0,0,1,.64-.6,1.12,1.12,0,0,1,2-.2C756.1,885.74,757,888.29,755.89,890.43Z" transform="translate(-695.52 -699.97)"/><path class="cls-14" d="M771.46,846.21a11.47,11.47,0,0,0-1.93-13.27,12,12,0,0,0-2.36-1.9c-.61-.37-2.22-.8-2.5-1.4a8.43,8.43,0,0,1-.11-1.61,10.5,10.5,0,0,0-.38-1.66,10.92,10.92,0,0,0-1.45-3,10.74,10.74,0,0,0-11.32-4.15.3.3,0,0,0-.24.22l-5.94,3.14c-.33.18-.14.63.18.66,1.76.15,3.7.38,5.06,1.63s1.71,3.54,0,4.78c-3,2.15-5.92-.85-6.68-3.66a.37.37,0,0,0-.44-.25,24.77,24.77,0,0,0-13,11.15l-.15.06c-.28.13-.21.44,0,.58a.34.34,0,0,0,.6,0l0-.09a2.8,2.8,0,1,1-1.36,4,.36.36,0,0,0-.61,0,25.68,25.68,0,0,0-4.54,20.34.27.27,0,0,0,.2.24.3.3,0,0,0,.18.12,31.06,31.06,0,0,0,18-.38.36.36,0,0,0,.15-.59,3.61,3.61,0,1,1,5.67-.61c-.22.4.39.76.61.36,0-.08.07-.17.11-.25,4.25-.32,11.58-1.81,10.58-7.7-.46-2.75-4.61-5.32-2.29-8.16,1.54-1.88,4.14-1.5,5.65.16,1.7,1.88,1.38,4.6.33,6.69a.36.36,0,0,0,.4.53,11.58,11.58,0,0,0,7-5.17,207.26,207.26,0,0,1,10.47,65.73.36.36,0,0,0,.71,0A208,208,0,0,0,771.46,846.21Zm-32.43.47-.11.1c0,.05,0,.11,0,.16-.64,1.52-2.64,2.71-3.92,3.69-1,.78-2.91,2.42-4.3,1.51-2-1.29.48-3.56,1.65-4.27a20.27,20.27,0,0,1,3.38-1.56,7.15,7.15,0,0,1,2.88-.74A.66.66,0,0,1,739,846.68Zm9.33,3a4.13,4.13,0,0,1-2.69,2.07,1,1,0,0,1-1.2-.92,5.42,5.42,0,0,1,1.64-3.8.52.52,0,0,1,.33-.19,1.09,1.09,0,0,1,1.52-.58C749.19,846.9,748.94,848.68,748.36,849.68ZM752,840c-1.49,1.2-4.25,1.15-6,1.09s-4.7-.42-4.82-2.74c-.15-2.71,3-2.69,4.84-2.35,1,.18,3.93.66,4.94,1.82C752,837.62,752.94,839.28,752,840Zm6-4.39c-.9.81-2.26,0-3.15-.46a5.3,5.3,0,0,1-2.22-1.77,1.42,1.42,0,0,1,.22-1.76,2.22,2.22,0,0,1,1.78-.44,3.81,3.81,0,0,1,2.25,1,2.61,2.61,0,0,1,.73,1.15,1.79,1.79,0,0,1,0,.46,1.1,1.1,0,0,1,.37,1.79Zm5.48,4.54c-.77.84-2.37,1.41-3.39.74a1.46,1.46,0,0,1-.53-1.81,2.37,2.37,0,0,1,1.49-1.2.62.62,0,0,1,.33,0,1.11,1.11,0,0,1,1.15-.85,1.76,1.76,0,0,1,1.54,1.34A2,2,0,0,1,763.49,840.18Z" transform="translate(-695.52 -699.97)"/><path class="cls-15" d="M831.08,828.92l-19-5.55a.35.35,0,0,0-.45.34,4.09,4.09,0,0,1-5.15,3.64,4.15,4.15,0,0,1-2.33-5.33.3.3,0,0,0-.2-.4.33.33,0,0,0-.22-.27,20,20,0,0,0-21.32,4.07c-.34.32.16.79.5.5,2.38-2.07,6.26.15,5,3.29-1.33,3.3-6,2-5.89-1.44a.36.36,0,0,0-.61-.25,21.58,21.58,0,0,0-5.07,14.55.35.35,0,0,0,.53.31,2.76,2.76,0,1,1,1.84,5.07.38.38,0,0,0-.51.32,9.73,9.73,0,0,0,9.53,10.61,4.8,4.8,0,0,0,0,1.51.29.29,0,0,0-.16.22,152.7,152.7,0,0,0,1,55.29c.09.45.78.26.69-.19a151.32,151.32,0,0,1-1.15-53.93,6.37,6.37,0,0,0,2.08,2.57c2.39,1.78,5.58,1.75,8.44,1.64a.28.28,0,0,0,.37.13l1.18-.48a.38.38,0,0,0,.13-.62.32.32,0,0,0-.11-.12c-2.87-1.89-.84-6.59,2.5-5.19,1.87.78,2.56,3,3.1,4.78a.36.36,0,0,0,.52.21,22.62,22.62,0,0,0,9.52-10.59.35.35,0,0,0-.13-.48c-2.07-1.09-3.71-3.32-2.88-5.74,1-2.81,5.47-3.29,5.9.14.06.45.77.45.71,0,0-.08,0-.14,0-.22a.35.35,0,0,0,.57.12,54,54,0,0,0,11.41-18.07A.36.36,0,0,0,831.08,828.92Zm-32.76-2.16c4.5-1.06,4.79,6.81,4.13,9.51a.82.82,0,0,1-1.15.48c-.06.11-.11.23-.18.34a1.14,1.14,0,0,1-1.77.23C797.43,835.62,794.4,827.69,798.32,826.76Zm-7.48,20.08A6.76,6.76,0,0,1,790,848a8.77,8.77,0,0,1-1,1.2,2.43,2.43,0,0,1-3,.61,1.64,1.64,0,0,1-.14-2.78,5.22,5.22,0,0,1,2.64-1.13.48.48,0,0,1,.44.17,2.84,2.84,0,0,1,.59-.61,1,1,0,0,1,1.21.15A1.06,1.06,0,0,1,790.84,846.84Zm.09-5.82a3.35,3.35,0,0,1-2.47-3.59c.37-3.57,4.76-.91,6.21.54a2.93,2.93,0,0,1,1.61,1.13,1,1,0,0,1-.59,1.46C794.08,840.88,792.59,841.5,790.93,841Zm6.44,15.32c-.45,1.16-2,2.4-3.17,1.49-.92-.69-.9-2.13-.8-3.15a7.09,7.09,0,0,1,1-3.37.93.93,0,0,1,.75-.42,1,1,0,0,1,1.52.25C797.33,852.64,798,854.73,797.37,856.34Zm8.49-10.4a16.57,16.57,0,0,1-1.89,2.5c-1.1,1.11-3.38,2.49-4.92,1.43s-.19-3.21.85-4.15c1.33-1.21,3.3-2.94,5.23-2.92a2.4,2.4,0,0,1,.75-.5,1.13,1.13,0,0,1,1.42,1.08A6.61,6.61,0,0,1,805.86,845.94Zm7.37-16.11a4.27,4.27,0,0,1,1.93-.53.85.85,0,0,1,.42,1.57,4.11,4.11,0,0,1-2,.4A.78.78,0,0,1,813.23,829.83Zm4.07,7.8a11.36,11.36,0,0,1-4.06,1.25c-.25.27-.49.54-.71.81-.64.75-1.56-.22-1.24-1a7.5,7.5,0,0,1,.66-1.21,1,1,0,0,1,.09-.21,1.38,1.38,0,0,1,.3-.34,11.12,11.12,0,0,1,7-4.05,1.13,1.13,0,0,1,1.12,1.12C820.38,835.89,818.85,837,817.3,837.63Z" transform="translate(-695.52 -699.97)"/><path class="cls-16" d="M863.1,892.36c-1.18-1.56-3.09-1.28-4.36,0a14.17,14.17,0,0,0-3,5.45c0-3.42-.19-6.84-.44-10.25,3.14-.9,10.44-4,7.65-7.91a3.54,3.54,0,0,0-4.58-.89c-2,1.09-2.74,3.31-3.25,5.41l-.09-.06q-.45-4.86-1.18-9.67a.73.73,0,0,0,.23-.49,8.41,8.41,0,0,0,6.4-2.76c1.5-1.65,2.69-4.43,1.67-6.62s-3.15-2.16-4.72-.81a14.44,14.44,0,0,0-4.13,7.25q-.89-5.16-2.08-10.25l.09-.12.06-.11a9,9,0,0,0,6.8-2.84c1.42-1.55,2.45-4.08.88-5.91s-4.15-.78-5.63.61a10,10,0,0,0-2.93,5.38c-.71-2.78-1.48-5.53-2.33-8.27a.62.62,0,0,0,.26-.06,11.56,11.56,0,0,0,5.41-4.72c.92-1.63,1.22-4.09-.65-5.23s-3.79.44-4.75,2a8.34,8.34,0,0,0-1.22,5.09c-.21-.64-.41-1.28-.63-1.91-.9-2.63-1.89-5.23-2.92-7.81a.25.25,0,0,0,.17-.06c2.27-1.74,5.25-3,6.52-5.72a4.05,4.05,0,0,0-1.41-5.36c-2-1.09-3.87.56-4.79,2.26a13.35,13.35,0,0,0-1.48,6.48q-1.66-4-3.52-7.88a13.44,13.44,0,0,0-1.76-9.59c-1.2-1.87-3.64-3.94-5.89-2.36s-1.58,4.89-.26,6.93a13.35,13.35,0,0,0,7.3,5.41h0c1.44,3,2.76,6,4,9.12a.21.21,0,0,0-.13.05,12.27,12.27,0,0,0-7.53-2.53c-1.76,0-4.72.5-4.68,2.83s2.87,3.05,4.74,3.12a11.29,11.29,0,0,0,7.59-2.63.39.39,0,0,0,.27-.19l0,.08,0,.19a.3.3,0,0,0,.14.22Q845,842,846.61,847c-2-1.49-4.19-2.79-6.75-2.5-2.34.26-4.62,2.2-4.36,4.73s2.59,3.88,4.85,3.84c2.83,0,5-2,6.77-4a.5.5,0,0,0,.17,0q1.43,4.56,2.6,9.2c-2.54-1.1-5.31-2.76-8-1.62a3.7,3.7,0,0,0-2.24,4.83c2,4.55,8.23,2.8,11-.08q1.26,5.42,2.17,10.9a12.16,12.16,0,0,0-6.78-3.5c-1.83-.26-4.11.34-4.09,2.59s2.56,3.88,4.48,4.42a8.4,8.4,0,0,0,6.79-1c.44,2.9.79,5.81,1.08,8.73a10.52,10.52,0,0,0-7.61-1.61c-2.38.53-3.77,2.6-2.84,5a6,6,0,0,0,5.8,3.45,6,6,0,0,0,4.7-2.71.9.9,0,0,0,.29,0c.18,2.32.32,4.66.39,7,0,.86,0,1.72,0,2.58a13.73,13.73,0,0,0-5.54-4.41c-1.85-.74-4.4-.63-5.36,1.44s.55,4,2.21,5.07a11.73,11.73,0,0,0,8.71,1.29q0,6.9-.64,13.78c0,.45.67.45.71,0,.39-4.49.58-9,.6-13.47h.14C859.09,900.46,866.23,896.52,863.1,892.36Z" transform="translate(-695.52 -699.97)"/><path class="cls-17" d="M883.34,847.14c.82-1.84,1.12-4.68-.71-6.08s-4.06.11-5.08,1.77a9.77,9.77,0,0,0-.46,8.63h0q-1.56,3.54-2.94,7.13a9,9,0,0,0-3-5.38c-1.33-1.1-3.46-1.77-4.6-.07s-.45,3.73.6,5.13a7.18,7.18,0,0,0,5.43,2.8.34.34,0,0,0,.09.63l.32.06q-1.56,4.37-2.87,8.81a10.69,10.69,0,0,0-2.11-5.42c-1.09-1.42-3.35-2.87-4.92-1.21-1.41,1.5-.37,3.95.6,5.37a9.47,9.47,0,0,0,5.69,3.86q-1.3,4.73-2.31,9.52a10.72,10.72,0,0,0-2.54-5.51c-1.12-1.25-3.25-2.58-4.85-1.33-1.86,1.45-.72,4,.36,5.51a14.37,14.37,0,0,0,6.2,4.83.25.25,0,0,0,.12,0c-.55,3-1,6-1.4,8.95-.26-2.14-.75-4.34-2.47-5.78a3.8,3.8,0,0,0-5-.21c-4.29,3.67,4.4,8,7.05,8.88h0a153.39,153.39,0,0,0-.92,17.55.35.35,0,0,0,.7,0,154.67,154.67,0,0,1,1-18.52c3.06.21,13,.38,10.46-5.1a4.13,4.13,0,0,0-5.13-2.05c-2.41.73-3.87,2.83-5,4.94.43-3.3.95-6.59,1.59-9.85,2.14.65,4.52,1.27,6.66.29a3.89,3.89,0,0,0,2.37-4.26,3.33,3.33,0,0,0-3.77-2.34c-2,.19-3.4,1.65-4.6,3.12.65-3,1.39-6,2.23-9a10.16,10.16,0,0,0,7.16-.49c1.54-.78,2.77-2.36,1.93-4.13a3.55,3.55,0,0,0-4.34-1.68c-2.16.68-3.35,2.64-4.26,4.58q1.35-4.65,3-9.22a12.08,12.08,0,0,0,6.56-.81c1.39-.62,3.08-2,2.27-3.75s-2.88-1.58-4.31-1a8.9,8.9,0,0,0-3.5,2.78q1.35-3.52,2.86-7A9.11,9.11,0,0,0,883.34,847.14Z" transform="translate(-695.52 -699.97)"/><path class="cls-17" d="M869.83,841.16c1.5-1.13,2.4-3,1.1-4.69a3.82,3.82,0,0,0-4.84-.8c-2,1.05-2.91,3.11-3.62,5.14,0-2.72-.13-5.45-.34-8.16l0-.07c2.12-.61,4.55-.65,6.29-2.15a3.31,3.31,0,0,0,.76-4.41c-1.13-1.46-3.2-1-4.4.11a11.64,11.64,0,0,0-2.84,4.65c-.29-3-.69-6-1.21-8.94a.38.38,0,0,0,.29-.54l0-.06a.31.31,0,0,0,.11-.21.19.19,0,0,1,0-.08,15.5,15.5,0,0,0,6.11-3.45c1.1-1.12,1.79-3.14.42-4.36s-3.42,0-4.47,1.12a11.72,11.72,0,0,0-2.69,6.07.16.16,0,0,1,0-.07c-.56-2.87-1.21-5.73-2-8.57l.88-.22a.28.28,0,0,0,.15-.08c1.92-.36,4-.92,5-2.7a3.2,3.2,0,0,0-.54-4.25,3.72,3.72,0,0,0-4.37.42,6.27,6.27,0,0,0-1.9,4.28c-.6-2-1.24-4-2-6a.41.41,0,0,0,.26-.33c1.56-.88,3.24-1.93,3.82-3.73a3,3,0,0,0-1.67-3.87c-1.5-.51-2.68.6-3.19,1.92a6.35,6.35,0,0,0-.41,2.85c-.51-1.29-1.05-2.58-1.62-3.86v-.42a.37.37,0,0,0,.25-.31c.35-3,.64-6.45-1.6-8.81a4.29,4.29,0,0,0-5.83-.59c-1.92,1.68-1.08,4.55.08,6.41,1.35,2.19,3.58,3.94,6.26,3.62h0c0,.11.09.21.13.32h0c.75,1.7,1.45,3.43,2.12,5.16-2-1.25-4.27-2.51-6.63-2.71-1.67-.15-3.77.57-3.92,2.54s2.31,2.78,3.9,3.06a11.51,11.51,0,0,0,7.29-1.17c.82,2.25,1.56,4.53,2.23,6.82a10.68,10.68,0,0,0-6-3c-1.82-.18-3.91.57-4.32,2.57s1.49,3.11,3.22,3.37a10.4,10.4,0,0,0,7.3-1.76l.17.18c.69,2.49,1.29,5,1.8,7.53a9.15,9.15,0,0,0-3.79-2.5c-1.78-.63-4.91-1-6.13.87s.44,3.9,2.15,4.64a10.55,10.55,0,0,0,8.3-.3c.55,3.09,1,6.21,1.26,9.34a12.3,12.3,0,0,0-5.62-3.45c-1.4-.36-3.35-.35-4.12,1.12-.91,1.76.62,3.42,2.07,4.17a11.12,11.12,0,0,0,7.88.65c.18,2.53.26,5.06.27,7.6a10.26,10.26,0,0,0-4.19-3.47,2.68,2.68,0,0,0-3.41,1.07,3,3,0,0,0,1.37,3.62c1.84,1.14,4.17.65,6.22,1.07q-.06,3.65-.36,7.27a.36.36,0,0,1,0,.09h0a.38.38,0,0,0-.22.65c-.12.39-.24.79-.33,1.2a.36.36,0,0,0,.37.44q-.49,4.88-1.44,9.7c-.09.44.6.63.69.19A110.24,110.24,0,0,0,862,851.41a13.28,13.28,0,0,0,6.55-2.39c1.19-1,1.9-3,.4-4s-3.51.17-4.69,1.3a11.81,11.81,0,0,0-2.08,2.66c.12-1.78.19-3.56.23-5.34h0c.39.13.58-.42.28-.63A10.74,10.74,0,0,0,869.83,841.16Z" transform="translate(-695.52 -699.97)"/></svg>